<?xml version="1.0" standalone="no"?><!DOCTYPE svg PUBLIC "-//W3C//DTD SVG 1.1//EN" "http://www.w3.org/Graphics/SVG/1.1/DTD/svg11.dtd"><svg class="icon" height="512" viewBox="0 0 1024 1024" version="1.1" xmlns="http://www.w3.org/2000/svg"><path d="M512 32c-265.096 0-480 214.904-480 480s214.904 480 480 480 480-214.904 480-480-214.904-480-480-480zM688.776 632.208c11.715 11.717 11.715 30.711 0 42.426l-14.141 14.141c-11.716 11.716-30.711 11.716-42.426 0l-120.209-120.206-120.208 120.207c-11.717 11.715-30.712 11.715-42.426 0l-14.141-14.141c-11.716-11.716-11.716-30.711 0-42.426l120.208-120.209-120.209-120.208c-11.716-11.717-11.716-30.712 0-42.427l14.141-14.14c11.714-11.716 30.711-11.716 42.426 0l120.209 120.207 120.208-120.207c11.717-11.716 30.711-11.716 42.426 0l14.141 14.14c11.716 11.716 11.716 30.712 0 42.427l-120.206 120.208 120.207 120.208z" fill="#F34442" /></svg>